<svg width="486" height="60" viewBox="0 0 486 60" fill="none" xmlns="http://www.w3.org/2000/svg">
<path d="M37.9 52.26L0.1 34.9V30.28L37.9 12.85V17.05L3.81 32.59L37.9 48.13V52.26ZM104.12 58V1.72H106.22V58H104.12ZM94.88 58V1.72H96.98V58H94.88ZM99.5 58V1.72H101.6V58H99.5ZM66.74 58V1.72H68.84V58H66.74ZM57.5 58V1.72H59.6V58H57.5ZM62.12 58V1.72H64.22V58H62.12ZM92.36 38.61L71.36 8.44V4.73L92.36 34.9V38.61ZM92.36 46.73L71.36 16.56V12.85L92.36 43.02V46.73ZM92.36 54.85L71.36 24.68V20.97L92.36 51.14V54.85ZM122.453 58V1.72H124.553V58H122.453ZM113.213 58V1.72H115.313V58H113.213ZM117.833 58V1.72H119.933V58H117.833ZM150.923 49.81C147.61 49.81 144.88 49.18 142.733 47.92C140.587 46.6133 139.42 44.8867 139.233 42.74L141.263 42.18C141.263 43.7667 142.15 45.0967 143.923 46.17C145.743 47.1967 148.077 47.71 150.923 47.71C153.863 47.71 156.243 47.1733 158.063 46.1C159.93 45.0267 160.863 43.65 160.863 41.97C160.863 40.3833 160.093 39.1 158.553 38.12C157.013 37.14 154.913 36.2767 152.253 35.53L147.913 34.27C142.127 32.59 137.763 30.4667 134.823 27.9C131.883 25.3333 130.413 21.81 130.413 17.33C130.413 14.11 131.3 11.2633 133.073 8.79C134.893 6.27 137.343 4.28666 140.423 2.84C143.55 1.39333 147.073 0.669995 150.993 0.669995C154.54 0.669995 157.737 1.25333 160.583 2.42C163.477 3.54 165.857 5.15 167.723 7.25C169.637 9.35 170.85 11.8 171.363 14.6L169.333 15.16C168.913 12.6867 167.863 10.5167 166.183 8.65C164.503 6.78333 162.357 5.33666 159.743 4.31C157.13 3.28333 154.213 2.77 150.993 2.77C147.447 2.77 144.273 3.42333 141.473 4.73C138.72 5.99 136.527 7.71666 134.893 9.91C133.307 12.1033 132.513 14.6233 132.513 17.47C132.513 21.2967 133.843 24.3767 136.503 26.71C139.21 28.9967 143.2 30.8633 148.473 32.31L152.813 33.5C156.033 34.3867 158.53 35.46 160.303 36.72C162.077 37.98 162.963 39.6833 162.963 41.83C162.963 44.21 161.867 46.1467 159.673 47.64C157.48 49.0867 154.563 49.81 150.923 49.81ZM150.923 54.43C146.537 54.43 142.85 53.4733 139.863 51.56C136.923 49.6 135.197 47.0567 134.683 43.93L136.783 43.37C137.157 46.0767 138.603 48.2467 141.123 49.88C143.69 51.5133 146.957 52.33 150.923 52.33C153.817 52.33 156.36 51.8867 158.553 51C160.747 50.1133 162.45 48.8767 163.663 47.29C164.877 45.7033 165.483 43.8833 165.483 41.83C165.483 38.9833 164.41 36.7433 162.263 35.11C160.117 33.43 157.153 32.0767 153.373 31.05L149.103 29.86C144.577 28.6 141.1 27.0133 138.673 25.1C136.247 23.1867 135.033 20.6433 135.033 17.47C135.033 15.09 135.71 12.99 137.063 11.17C138.463 9.35 140.377 7.92667 142.803 6.9C145.23 5.82667 147.96 5.29 150.993 5.29C153.84 5.29 156.383 5.73333 158.623 6.62C160.91 7.46 162.777 8.67333 164.223 10.26C165.67 11.8467 166.557 13.69 166.883 15.79L164.783 16.35C164.457 13.6433 163.01 11.4733 160.443 9.84C157.923 8.20666 154.773 7.39 150.993 7.39C148.333 7.39 145.953 7.83333 143.853 8.72C141.753 9.56 140.097 10.75 138.883 12.29C137.717 13.7833 137.133 15.51 137.133 17.47C137.133 20.13 138.183 22.23 140.283 23.77C142.43 25.31 145.533 26.6633 149.593 27.83L153.793 29.02C158.133 30.2333 161.517 31.8433 163.943 33.85C166.37 35.81 167.583 38.47 167.583 41.83C167.583 44.3033 166.883 46.4967 165.483 48.41C164.083 50.2767 162.123 51.7467 159.603 52.82C157.13 53.8933 154.237 54.43 150.923 54.43ZM150.923 59.05C147.283 59.05 143.993 58.49 141.053 57.37C138.16 56.2033 135.757 54.5933 133.843 52.54C131.977 50.44 130.763 47.9667 130.203 45.12L132.233 44.56C132.7 47.08 133.75 49.2733 135.383 51.14C137.063 52.96 139.233 54.3833 141.893 55.41C144.553 56.4367 147.563 56.95 150.923 56.95C154.75 56.95 158.087 56.32 160.933 55.06C163.827 53.7533 166.067 51.98 167.653 49.74C169.287 47.4533 170.103 44.8167 170.103 41.83C170.103 37.8633 168.727 34.69 165.973 32.31C163.22 29.93 159.347 28.0167 154.353 26.57L150.223 25.38C146.817 24.4 144.203 23.3267 142.383 22.16C140.563 20.9933 139.653 19.43 139.653 17.47C139.653 15.1833 140.727 13.3633 142.873 12.01C145.02 10.61 147.727 9.91 150.993 9.91C154.167 9.91 156.78 10.5633 158.833 11.87C160.887 13.1767 162.053 14.88 162.333 16.98L160.303 17.54C160.21 15.9067 159.3 14.5767 157.573 13.55C155.893 12.5233 153.7 12.01 150.993 12.01C148.427 12.01 146.233 12.5 144.413 13.48C142.64 14.46 141.753 15.7433 141.753 17.33C141.753 18.7767 142.57 19.9433 144.203 20.83C145.883 21.7167 148.077 22.5567 150.783 23.35L154.773 24.54C160.42 26.22 164.737 28.4133 167.723 31.12C170.71 33.78 172.203 37.3967 172.203 41.97C172.203 45.2833 171.293 48.2467 169.473 50.86C167.7 53.4267 165.203 55.4333 161.983 56.88C158.81 58.3267 155.123 59.05 150.923 59.05ZM186.984 58V1.72H189.084V58H186.984ZM177.744 58V1.72H179.844V58H177.744ZM182.364 58V1.72H184.464V58H182.364ZM223.314 58V1.72H225.414V58H223.314ZM214.074 58V1.72H216.174V58H214.074ZM218.694 58V1.72H220.794V58H218.694ZM191.604 26.29V24.19H211.554V26.29H191.604ZM191.604 30.91V28.81H211.554V30.91H191.604ZM191.604 35.53V33.43H211.554V35.53H191.604ZM240.132 58L260.502 1.72H262.742L242.372 58H240.132ZM230.332 58L250.702 1.72H252.872L232.572 58H230.332ZM235.232 58L255.532 1.72H257.842L237.472 58H235.232ZM281.152 58L262.882 7.53L264.002 4.38L283.392 58H281.152ZM276.252 58L260.502 14.39L261.552 11.17L278.492 58H276.252ZM271.352 58L258.052 21.18L259.172 18.03L273.592 58H271.352ZM251.542 39.38L252.312 37.28H261.552L262.322 39.38H251.542ZM249.862 44.07L250.632 41.97H263.232L264.002 44.07H249.862ZM248.182 48.69L248.952 46.59H264.912L265.682 48.69H248.182ZM278.509 3.82V1.72H321.979V3.82H278.509ZM278.509 8.44V6.34H321.979V8.44H278.509ZM278.509 13.06V10.96H321.979V13.06H278.509ZM303.849 58V15.3H305.949V58H303.849ZM294.609 58V15.3H296.709V58H294.609ZM299.229 58V15.3H301.329V58H299.229ZM335.392 58V1.72H337.492V58H335.392ZM326.152 58V1.72H328.252V58H326.152ZM330.772 58V1.72H332.872V58H330.772ZM371.722 58V1.72H373.822V58H371.722ZM362.482 58V1.72H364.582V58H362.482ZM367.102 58V1.72H369.202V58H367.102ZM340.012 26.29V24.19H359.962V26.29H340.012ZM340.012 30.91V28.81H359.962V30.91H340.012ZM340.012 35.53V33.43H359.962V35.53H340.012ZM390.08 58V1.72H392.18V58H390.08ZM380.84 58V1.72H382.94V58H380.84ZM385.46 58V1.72H387.56V58H385.46ZM426.41 58V1.72H428.51V58H426.41ZM417.17 58V1.72H419.27V58H417.17ZM421.79 58V1.72H423.89V58H421.79ZM394.7 26.29V24.19H414.65V26.29H394.7ZM394.7 30.91V28.81H414.65V30.91H394.7ZM394.7 35.53V33.43H414.65V35.53H394.7ZM448.127 52.26V48.13L482.217 32.59L448.127 17.05V12.85L485.927 30.28V34.9L448.127 52.26Z" fill="#FF6900"/>
</svg>
